{
	"asset":{
		"generator":"Khronos glTF Blender I/O v4.2.60",
		"version":"2.0"
	},
	"scene":1,
	"scenes":[
		{
			"name":"resources",
			"nodes":[
				0,
				1,
				2
			]
		},
		{
			"name":"Scene",
			"nodes":[
				3,
				4,
				5,
				6,
				7,
				8,
				9,
				10,
				11
			]
		}
	],
	"nodes":[
		{
			"mesh":0,
			"name":"resource::joint_revolute",
			"rotation":[
				0,
				-0.7071068286895752,
				0,
				0.7071068286895752
			]
		},
		{
			"mesh":1,
			"name":"resource::link_root",
			"translation":[
				-2,
				0,
				1
			]
		},
		{
			"mesh":2,
			"name":"resource::joint_fixed",
			"rotation":[
				0,
				-0.7071068286895752,
				0,
				0.7071068286895752
			],
			"translation":[
				-2,
				0,
				0
			]
		},
		{
			"mesh":3,
			"name":"kielbasa_01",
			"translation":[
				0.0827484130859375,
				146.6709442138672,
				-69.732421875
			]
		},
		{
			"mesh":4,
			"name":"szubienica",
			"translation":[
				0,
				83.9119644165039,
				0
			]
		},
		{
			"mesh":5,
			"name":"walec_01",
			"rotation":[
				0.5,
				-0.5,
				-0.5,
				0.5
			],
			"translation":[
				0.36785888671875,
				156.8184814453125,
				-69.54049682617188
			]
		},
		{
			"mesh":6,
			"name":"walec_02",
			"rotation":[
				0.5,
				-0.5,
				-0.5,
				0.5
			],
			"translation":[
				0.36785888671875,
				119.4371566772461,
				-69.54049682617188
			]
		},
		{
			"mesh":7,
			"name":"kielbasa_02",
			"translation":[
				0.0827484130859375,
				108.8947525024414,
				-69.732421875
			]
		},
		{
			"mesh":8,
			"name":"walec_03",
			"rotation":[
				0.5,
				-0.5,
				-0.5,
				0.5
			],
			"translation":[
				0.36785888671875,
				82.15675354003906,
				-69.54049682617188
			]
		},
		{
			"mesh":9,
			"name":"kielbasa_03",
			"translation":[
				-0.352020263671875,
				73.0481185913086,
				-69.732421875
			]
		},
		{
			"mesh":10,
			"name":"walec_04",
			"rotation":[
				0.5,
				-0.5,
				-0.5,
				0.5
			],
			"translation":[
				0.36785888671875,
				46.74907684326172,
				-69.54049682617188
			]
		},
		{
			"mesh":11,
			"name":"kielbasa_04",
			"translation":[
				0.517547607421875,
				37.794620513916016,
				-69.732421875
			]
		}
	],
	"materials":[
		{
			"doubleSided":true,
			"name":"turnarrow",
			"pbrMetallicRoughness":{
				"baseColorFactor":[
					0.2337665855884552,
					0.4471888244152069,
					0.8000000715255737,
					1
				],
				"metallicFactor":0,
				"roughnessFactor":0.5
			}
		},
		{
			"doubleSided":true,
			"name":"turnaxis",
			"pbrMetallicRoughness":{
				"baseColorFactor":[
					0.6393662691116333,
					0.703980028629303,
					1,
					1
				],
				"metallicFactor":0,
				"roughnessFactor":0.5
			}
		},
		{
			"doubleSided":true,
			"name":"turnarrow.001",
			"pbrMetallicRoughness":{
				"baseColorFactor":[
					0.2337665855884552,
					0.4471888244152069,
					0.8000000715255737,
					1
				],
				"metallicFactor":0,
				"roughnessFactor":0.5
			}
		},
		{
			"doubleSided":true,
			"name":"turnarrow.002",
			"pbrMetallicRoughness":{
				"baseColorFactor":[
					0.2337665855884552,
					0.4471888244152069,
					0.8000000715255737,
					1
				],
				"metallicFactor":0,
				"roughnessFactor":0.5
			}
		},
		{
			"doubleSided":true,
			"name":"turnaxis.001",
			"pbrMetallicRoughness":{
				"baseColorFactor":[
					0.6393662691116333,
					0.703980028629303,
					1,
					1
				],
				"metallicFactor":0,
				"roughnessFactor":0.5
			}
		},
		{
			"doubleSided":true,
			"name":"Material.002",
			"pbrMetallicRoughness":{
				"baseColorFactor":[
					0.07710299640893936,
					0.0055448757484555244,
					0.0033744913525879383,
					1
				],
				"metallicFactor":0,
				"roughnessFactor":0.5
			}
		},
		{
			"doubleSided":true,
			"name":"Material.008",
			"pbrMetallicRoughness":{
				"baseColorFactor":[
					0.023845210671424866,
					0.005507311783730984,
					0.0014986847527325153,
					1
				],
				"metallicFactor":0,
				"roughnessFactor":0.5
			}
		},
		{
			"doubleSided":true,
			"name":"Material.010",
			"pbrMetallicRoughness":{
				"baseColorFactor":[
					0.8004969358444214,
					0.29315319657325745,
					0.06749307364225388,
					1
				],
				"metallicFactor":0,
				"roughnessFactor":0.5
			}
		},
		{
			"doubleSided":true,
			"name":"Material.011",
			"pbrMetallicRoughness":{
				"baseColorFactor":[
					0.29498323798179626,
					0.0012228069826960564,
					0,
					1
				],
				"metallicFactor":0,
				"roughnessFactor":0.5
			}
		},
		{
			"doubleSided":true,
			"name":"Material.012",
			"pbrMetallicRoughness":{
				"baseColorFactor":[
					0.8001892566680908,
					0.03150390833616257,
					0.01495347823947668,
					1
				],
				"metallicFactor":0,
				"roughnessFactor":0.5
			}
		}
	],
	"meshes":[
		{
			"name":"clockwise_turnaxis.001",
			"primitives":[
				{
					"attributes":{
						"POSITION":0,
						"NORMAL":1
					},
					"indices":2,
					"material":0
				},
				{
					"attributes":{
						"POSITION":3,
						"NORMAL":4
					},
					"indices":5,
					"material":1
				}
			]
		},
		{
			"name":"link_root",
			"primitives":[
				{
					"attributes":{
						"POSITION":6,
						"NORMAL":7
					},
					"indices":8,
					"material":2
				}
			]
		},
		{
			"name":"clockwise_turnaxis.003",
			"primitives":[
				{
					"attributes":{
						"POSITION":9,
						"NORMAL":10
					},
					"indices":11,
					"material":3
				},
				{
					"attributes":{
						"POSITION":12,
						"NORMAL":13
					},
					"indices":14,
					"material":4
				}
			]
		},
		{
			"name":"Sphere.007",
			"primitives":[
				{
					"attributes":{
						"POSITION":15,
						"NORMAL":16,
						"TEXCOORD_0":17
					},
					"indices":18,
					"material":5
				}
			]
		},
		{
			"name":"Cube.003",
			"primitives":[
				{
					"attributes":{
						"POSITION":19,
						"NORMAL":20,
						"TEXCOORD_0":21
					},
					"indices":22,
					"material":6
				}
			]
		},
		{
			"name":"Cylinder.004",
			"primitives":[
				{
					"attributes":{
						"POSITION":23,
						"NORMAL":24,
						"TEXCOORD_0":25
					},
					"indices":26
				}
			]
		},
		{
			"name":"Cylinder.005",
			"primitives":[
				{
					"attributes":{
						"POSITION":27,
						"NORMAL":28,
						"TEXCOORD_0":29
					},
					"indices":26
				}
			]
		},
		{
			"name":"Sphere.001",
			"primitives":[
				{
					"attributes":{
						"POSITION":30,
						"NORMAL":31,
						"TEXCOORD_0":32
					},
					"indices":18,
					"material":7
				}
			]
		},
		{
			"name":"Cylinder.006",
			"primitives":[
				{
					"attributes":{
						"POSITION":33,
						"NORMAL":34,
						"TEXCOORD_0":35
					},
					"indices":26
				}
			]
		},
		{
			"name":"Sphere.003",
			"primitives":[
				{
					"attributes":{
						"POSITION":36,
						"NORMAL":37,
						"TEXCOORD_0":38
					},
					"indices":18,
					"material":8
				}
			]
		},
		{
			"name":"Cylinder.008",
			"primitives":[
				{
					"attributes":{
						"POSITION":39,
						"NORMAL":40,
						"TEXCOORD_0":41
					},
					"indices":26
				}
			]
		},
		{
			"name":"Sphere.004",
			"primitives":[
				{
					"attributes":{
						"POSITION":42,
						"NORMAL":43,
						"TEXCOORD_0":44
					},
					"indices":18,
					"material":9
				}
			]
		}
	],
	"accessors":[
		{
			"bufferView":0,
			"componentType":5126,
			"count":545,
			"max":[
				0.18811288475990295,
				0.1884244680404663,
				-0.9525916576385498
			],
			"min":[
				-0.1880100667476654,
				-0.18374644219875336,
				-1.06245756149292
			],
			"type":"VEC3"
		},
		{
			"bufferView":1,
			"componentType":5126,
			"count":545,
			"type":"VEC3"
		},
		{
			"bufferView":2,
			"componentType":5123,
			"count":2910,
			"type":"SCALAR"
		},
		{
			"bufferView":3,
			"componentType":5126,
			"count":128,
			"max":[
				0.02355400286614895,
				0.02355531044304371,
				-0.0008052809280343354
			],
			"min":[
				-0.023556098341941833,
				-0.02355497144162655,
				-0.9728679656982422
			],
			"type":"VEC3"
		},
		{
			"bufferView":4,
			"componentType":5126,
			"count":128,
			"type":"VEC3"
		},
		{
			"bufferView":5,
			"componentType":5123,
			"count":372,
			"type":"SCALAR"
		},
		{
			"bufferView":6,
			"componentType":5126,
			"count":557,
			"max":[
				0.19780291616916656,
				0.03500000014901161,
				0.42172279953956604
			],
			"min":[
				-0.19780291616916656,
				-0.03500000014901161,
				-0.33077725768089294
			],
			"type":"VEC3"
		},
		{
			"bufferView":7,
			"componentType":5126,
			"count":557,
			"type":"VEC3"
		},
		{
			"bufferView":8,
			"componentType":5123,
			"count":1632,
			"type":"SCALAR"
		},
		{
			"bufferView":9,
			"componentType":5126,
			"count":152,
			"max":[
				0.1406347155570984,
				0.14065273106098175,
				-0.7250579595565796
			],
			"min":[
				-0.140670508146286,
				-0.1406525820493698,
				-1.0178937911987305
			],
			"type":"VEC3"
		},
		{
			"bufferView":10,
			"componentType":5126,
			"count":152,
			"type":"VEC3"
		},
		{
			"bufferView":11,
			"componentType":5123,
			"count":408,
			"type":"SCALAR"
		},
		{
			"bufferView":12,
			"componentType":5126,
			"count":128,
			"max":[
				0.027008522301912308,
				0.027008360251784325,
				4.5310736140891095e-07
			],
			"min":[
				-0.0270089041441679,
				-0.02700873091816902,
				-0.7265790700912476
			],
			"type":"VEC3"
		},
		{
			"bufferView":13,
			"componentType":5126,
			"count":128,
			"type":"VEC3"
		},
		{
			"bufferView":14,
			"componentType":5123,
			"count":372,
			"type":"SCALAR"
		},
		{
			"bufferView":15,
			"componentType":5126,
			"count":2176,
			"max":[
				6.261562824249268,
				8.163766860961914,
				6.261562824249268
			],
			"min":[
				-6.261562824249268,
				-24.92920684814453,
				-6.261562824249268
			],
			"type":"VEC3"
		},
		{
			"bufferView":16,
			"componentType":5126,
			"count":2176,
			"type":"VEC3"
		},
		{
			"bufferView":17,
			"componentType":5126,
			"count":2176,
			"type":"VEC2"
		},
		{
			"bufferView":18,
			"componentType":5123,
			"count":3252,
			"type":"SCALAR"
		},
		{
			"bufferView":19,
			"componentType":5126,
			"count":48,
			"max":[
				4.752394676208496,
				83.86943054199219,
				4.752394676208496
			],
			"min":[
				-4.752394676208496,
				-83.85432434082031,
				-74.03619384765625
			],
			"type":"VEC3"
		},
		{
			"bufferView":20,
			"componentType":5126,
			"count":48,
			"type":"VEC3"
		},
		{
			"bufferView":21,
			"componentType":5126,
			"count":48,
			"type":"VEC2"
		},
		{
			"bufferView":22,
			"componentType":5123,
			"count":72,
			"type":"SCALAR"
		},
		{
			"bufferView":23,
			"componentType":5126,
			"count":1152,
			"max":[
				1.590602159500122,
				6.848687648773193,
				6.665368556976318
			],
			"min":[
				-1.7040847539901733,
				-6.7393059730529785,
				-6.9226250648498535
			],
			"type":"VEC3"
		},
		{
			"bufferView":24,
			"componentType":5126,
			"count":1152,
			"type":"VEC3"
		},
		{
			"bufferView":25,
			"componentType":5126,
			"count":1152,
			"type":"VEC2"
		},
		{
			"bufferView":26,
			"componentType":5123,
			"count":2232,
			"type":"SCALAR"
		},
		{
			"bufferView":27,
			"componentType":5126,
			"count":1152,
			"max":[
				1.590602159500122,
				6.848687648773193,
				6.665368556976318
			],
			"min":[
				-1.7040847539901733,
				-6.7393059730529785,
				-6.9226250648498535
			],
			"type":"VEC3"
		},
		{
			"bufferView":28,
			"componentType":5126,
			"count":1152,
			"type":"VEC3"
		},
		{
			"bufferView":29,
			"componentType":5126,
			"count":1152,
			"type":"VEC2"
		},
		{
			"bufferView":30,
			"componentType":5126,
			"count":2176,
			"max":[
				6.261562824249268,
				8.163766860961914,
				6.261562824249268
			],
			"min":[
				-6.261562824249268,
				-24.92920684814453,
				-6.261562824249268
			],
			"type":"VEC3"
		},
		{
			"bufferView":31,
			"componentType":5126,
			"count":2176,
			"type":"VEC3"
		},
		{
			"bufferView":32,
			"componentType":5126,
			"count":2176,
			"type":"VEC2"
		},
		{
			"bufferView":33,
			"componentType":5126,
			"count":1152,
			"max":[
				1.590602159500122,
				6.848687648773193,
				6.665368556976318
			],
			"min":[
				-1.7040847539901733,
				-6.7393059730529785,
				-6.9226250648498535
			],
			"type":"VEC3"
		},
		{
			"bufferView":34,
			"componentType":5126,
			"count":1152,
			"type":"VEC3"
		},
		{
			"bufferView":35,
			"componentType":5126,
			"count":1152,
			"type":"VEC2"
		},
		{
			"bufferView":36,
			"componentType":5126,
			"count":2176,
			"max":[
				6.261562824249268,
				8.163766860961914,
				6.261562824249268
			],
			"min":[
				-6.261562824249268,
				-24.92920684814453,
				-6.261562824249268
			],
			"type":"VEC3"
		},
		{
			"bufferView":37,
			"componentType":5126,
			"count":2176,
			"type":"VEC3"
		},
		{
			"bufferView":38,
			"componentType":5126,
			"count":2176,
			"type":"VEC2"
		},
		{
			"bufferView":39,
			"componentType":5126,
			"count":1152,
			"max":[
				1.590602159500122,
				6.848687648773193,
				6.665368556976318
			],
			"min":[
				-1.7040847539901733,
				-6.7393059730529785,
				-6.9226250648498535
			],
			"type":"VEC3"
		},
		{
			"bufferView":40,
			"componentType":5126,
			"count":1152,
			"type":"VEC3"
		},
		{
			"bufferView":41,
			"componentType":5126,
			"count":1152,
			"type":"VEC2"
		},
		{
			"bufferView":42,
			"componentType":5126,
			"count":2176,
			"max":[
				6.261562824249268,
				8.163766860961914,
				6.261562824249268
			],
			"min":[
				-6.261562824249268,
				-24.92920684814453,
				-6.261562824249268
			],
			"type":"VEC3"
		},
		{
			"bufferView":43,
			"componentType":5126,
			"count":2176,
			"type":"VEC3"
		},
		{
			"bufferView":44,
			"componentType":5126,
			"count":2176,
			"type":"VEC2"
		}
	],
	"bufferViews":[
		{
			"buffer":0,
			"byteLength":6540,
			"byteOffset":0,
			"target":34962
		},
		{
			"buffer":0,
			"byteLength":6540,
			"byteOffset":6540,
			"target":34962
		},
		{
			"buffer":0,
			"byteLength":5820,
			"byteOffset":13080,
			"target":34963
		},
		{
			"buffer":0,
			"byteLength":1536,
			"byteOffset":18900,
			"target":34962
		},
		{
			"buffer":0,
			"byteLength":1536,
			"byteOffset":20436,
			"target":34962
		},
		{
			"buffer":0,
			"byteLength":744,
			"byteOffset":21972,
			"target":34963
		},
		{
			"buffer":0,
			"byteLength":6684,
			"byteOffset":22716,
			"target":34962
		},
		{
			"buffer":0,
			"byteLength":6684,
			"byteOffset":29400,
			"target":34962
		},
		{
			"buffer":0,
			"byteLength":3264,
			"byteOffset":36084,
			"target":34963
		},
		{
			"buffer":0,
			"byteLength":1824,
			"byteOffset":39348,
			"target":34962
		},
		{
			"buffer":0,
			"byteLength":1824,
			"byteOffset":41172,
			"target":34962
		},
		{
			"buffer":0,
			"byteLength":816,
			"byteOffset":42996,
			"target":34963
		},
		{
			"buffer":0,
			"byteLength":1536,
			"byteOffset":43812,
			"target":34962
		},
		{
			"buffer":0,
			"byteLength":1536,
			"byteOffset":45348,
			"target":34962
		},
		{
			"buffer":0,
			"byteLength":744,
			"byteOffset":46884,
			"target":34963
		},
		{
			"buffer":0,
			"byteLength":26112,
			"byteOffset":47628,
			"target":34962
		},
		{
			"buffer":0,
			"byteLength":26112,
			"byteOffset":73740,
			"target":34962
		},
		{
			"buffer":0,
			"byteLength":17408,
			"byteOffset":99852,
			"target":34962
		},
		{
			"buffer":0,
			"byteLength":6504,
			"byteOffset":117260,
			"target":34963
		},
		{
			"buffer":0,
			"byteLength":576,
			"byteOffset":123764,
			"target":34962
		},
		{
			"buffer":0,
			"byteLength":576,
			"byteOffset":124340,
			"target":34962
		},
		{
			"buffer":0,
			"byteLength":384,
			"byteOffset":124916,
			"target":34962
		},
		{
			"buffer":0,
			"byteLength":144,
			"byteOffset":125300,
			"target":34963
		},
		{
			"buffer":0,
			"byteLength":13824,
			"byteOffset":125444,
			"target":34962
		},
		{
			"buffer":0,
			"byteLength":13824,
			"byteOffset":139268,
			"target":34962
		},
		{
			"buffer":0,
			"byteLength":9216,
			"byteOffset":153092,
			"target":34962
		},
		{
			"buffer":0,
			"byteLength":4464,
			"byteOffset":162308,
			"target":34963
		},
		{
			"buffer":0,
			"byteLength":13824,
			"byteOffset":166772,
			"target":34962
		},
		{
			"buffer":0,
			"byteLength":13824,
			"byteOffset":180596,
			"target":34962
		},
		{
			"buffer":0,
			"byteLength":9216,
			"byteOffset":194420,
			"target":34962
		},
		{
			"buffer":0,
			"byteLength":26112,
			"byteOffset":203636,
			"target":34962
		},
		{
			"buffer":0,
			"byteLength":26112,
			"byteOffset":229748,
			"target":34962
		},
		{
			"buffer":0,
			"byteLength":17408,
			"byteOffset":255860,
			"target":34962
		},
		{
			"buffer":0,
			"byteLength":13824,
			"byteOffset":273268,
			"target":34962
		},
		{
			"buffer":0,
			"byteLength":13824,
			"byteOffset":287092,
			"target":34962
		},
		{
			"buffer":0,
			"byteLength":9216,
			"byteOffset":300916,
			"target":34962
		},
		{
			"buffer":0,
			"byteLength":26112,
			"byteOffset":310132,
			"target":34962
		},
		{
			"buffer":0,
			"byteLength":26112,
			"byteOffset":336244,
			"target":34962
		},
		{
			"buffer":0,
			"byteLength":17408,
			"byteOffset":362356,
			"target":34962
		},
		{
			"buffer":0,
			"byteLength":13824,
			"byteOffset":379764,
			"target":34962
		},
		{
			"buffer":0,
			"byteLength":13824,
			"byteOffset":393588,
			"target":34962
		},
		{
			"buffer":0,
			"byteLength":9216,
			"byteOffset":407412,
			"target":34962
		},
		{
			"buffer":0,
			"byteLength":26112,
			"byteOffset":416628,
			"target":34962
		},
		{
			"buffer":0,
			"byteLength":26112,
			"byteOffset":442740,
			"target":34962
		},
		{
			"buffer":0,
			"byteLength":17408,
			"byteOffset":468852,
			"target":34962
		}
	],
	"buffers":[
		{
			"byteLength":486260,
			"uri":"nowe.bin"
		}
	]
}
