{
	"asset":{
		"generator":"Khronos glTF Blender I/O v4.2.60",
		"version":"2.0"
	},
	"scene":1,
	"scenes":[
		{
			"name":"resources",
			"nodes":[
				0,
				1,
				2
			]
		},
		{
			"name":"Scene",
			"nodes":[
				3
			]
		}
	],
	"nodes":[
		{
			"mesh":0,
			"name":"resource::joint_revolute",
			"rotation":[
				0,
				-0.7071068286895752,
				0,
				0.7071068286895752
			]
		},
		{
			"mesh":1,
			"name":"resource::link_root"
		},
		{
			"mesh":2,
			"name":"resource::joint_fixed"
		},
		{
			"mesh":3,
			"name":"walec_04",
			"rotation":[
				0.5,
				-0.5,
				-0.5,
				0.5
			],
			"translation":[
				0.36785888671875,
				46.74907684326172,
				-69.54049682617188
			]
		}
	],
	"materials":[
		{
			"doubleSided":true,
			"name":"turnarrow",
			"pbrMetallicRoughness":{
				"baseColorFactor":[
					0.2337665855884552,
					0.4471888244152069,
					0.8000000715255737,
					1
				],
				"metallicFactor":0,
				"roughnessFactor":0.5
			}
		},
		{
			"doubleSided":true,
			"name":"turnaxis",
			"pbrMetallicRoughness":{
				"baseColorFactor":[
					0.6393662691116333,
					0.703980028629303,
					1,
					1
				],
				"metallicFactor":0,
				"roughnessFactor":0.5
			}
		},
		{
			"doubleSided":true,
			"name":"turnarrow.001",
			"pbrMetallicRoughness":{
				"baseColorFactor":[
					0.2337665855884552,
					0.4471888244152069,
					0.8000000715255737,
					1
				],
				"metallicFactor":0,
				"roughnessFactor":0.5
			}
		},
		{
			"doubleSided":true,
			"name":"turnarrow.002",
			"pbrMetallicRoughness":{
				"baseColorFactor":[
					0.2337665855884552,
					0.4471888244152069,
					0.8000000715255737,
					1
				],
				"metallicFactor":0,
				"roughnessFactor":0.5
			}
		},
		{
			"doubleSided":true,
			"name":"turnaxis.001",
			"pbrMetallicRoughness":{
				"baseColorFactor":[
					0.6393662691116333,
					0.703980028629303,
					1,
					1
				],
				"metallicFactor":0,
				"roughnessFactor":0.5
			}
		}
	],
	"meshes":[
		{
			"name":"clockwise_turnaxis.001",
			"primitives":[
				{
					"attributes":{
						"POSITION":0,
						"NORMAL":1
					},
					"indices":2,
					"material":0
				},
				{
					"attributes":{
						"POSITION":3,
						"NORMAL":4
					},
					"indices":5,
					"material":1
				}
			]
		},
		{
			"name":"link_root",
			"primitives":[
				{
					"attributes":{
						"POSITION":6,
						"NORMAL":7
					},
					"indices":8,
					"material":2
				}
			]
		},
		{
			"name":"clockwise_turnaxis.003",
			"primitives":[
				{
					"attributes":{
						"POSITION":9,
						"NORMAL":10
					},
					"indices":11,
					"material":3
				},
				{
					"attributes":{
						"POSITION":12,
						"NORMAL":13
					},
					"indices":14,
					"material":4
				}
			]
		},
		{
			"name":"Cylinder.008",
			"primitives":[
				{
					"attributes":{
						"POSITION":15,
						"NORMAL":16,
						"TEXCOORD_0":17
					},
					"indices":18
				}
			]
		}
	],
	"accessors":[
		{
			"bufferView":0,
			"componentType":5126,
			"count":545,
			"max":[
				0.18811288475990295,
				0.1884244680404663,
				-0.9525916576385498
			],
			"min":[
				-0.1880100667476654,
				-0.18374644219875336,
				-1.06245756149292
			],
			"type":"VEC3"
		},
		{
			"bufferView":1,
			"componentType":5126,
			"count":545,
			"type":"VEC3"
		},
		{
			"bufferView":2,
			"componentType":5123,
			"count":2910,
			"type":"SCALAR"
		},
		{
			"bufferView":3,
			"componentType":5126,
			"count":128,
			"max":[
				0.02355400286614895,
				0.02355531044304371,
				-0.0008052809280343354
			],
			"min":[
				-0.023556098341941833,
				-0.02355497144162655,
				-0.9728679656982422
			],
			"type":"VEC3"
		},
		{
			"bufferView":4,
			"componentType":5126,
			"count":128,
			"type":"VEC3"
		},
		{
			"bufferView":5,
			"componentType":5123,
			"count":372,
			"type":"SCALAR"
		},
		{
			"bufferView":6,
			"componentType":5126,
			"count":557,
			"max":[
				0.19780291616916656,
				0.03500000014901161,
				0.42172279953956604
			],
			"min":[
				-0.19780291616916656,
				-0.03500000014901161,
				-0.33077725768089294
			],
			"type":"VEC3"
		},
		{
			"bufferView":7,
			"componentType":5126,
			"count":557,
			"type":"VEC3"
		},
		{
			"bufferView":8,
			"componentType":5123,
			"count":1632,
			"type":"SCALAR"
		},
		{
			"bufferView":9,
			"componentType":5126,
			"count":152,
			"max":[
				0.1406347155570984,
				0.14065273106098175,
				-0.7250579595565796
			],
			"min":[
				-0.140670508146286,
				-0.1406525820493698,
				-1.0178937911987305
			],
			"type":"VEC3"
		},
		{
			"bufferView":10,
			"componentType":5126,
			"count":152,
			"type":"VEC3"
		},
		{
			"bufferView":11,
			"componentType":5123,
			"count":408,
			"type":"SCALAR"
		},
		{
			"bufferView":12,
			"componentType":5126,
			"count":128,
			"max":[
				0.027008522301912308,
				0.027008360251784325,
				4.5310736140891095e-07
			],
			"min":[
				-0.0270089041441679,
				-0.02700873091816902,
				-0.7265790700912476
			],
			"type":"VEC3"
		},
		{
			"bufferView":13,
			"componentType":5126,
			"count":128,
			"type":"VEC3"
		},
		{
			"bufferView":14,
			"componentType":5123,
			"count":372,
			"type":"SCALAR"
		},
		{
			"bufferView":15,
			"componentType":5126,
			"count":1152,
			"max":[
				1.590602159500122,
				6.848687648773193,
				6.665368556976318
			],
			"min":[
				-1.7040847539901733,
				-6.7393059730529785,
				-6.9226250648498535
			],
			"type":"VEC3"
		},
		{
			"bufferView":16,
			"componentType":5126,
			"count":1152,
			"type":"VEC3"
		},
		{
			"bufferView":17,
			"componentType":5126,
			"count":1152,
			"type":"VEC2"
		},
		{
			"bufferView":18,
			"componentType":5123,
			"count":2232,
			"type":"SCALAR"
		}
	],
	"bufferViews":[
		{
			"buffer":0,
			"byteLength":6540,
			"byteOffset":0,
			"target":34962
		},
		{
			"buffer":0,
			"byteLength":6540,
			"byteOffset":6540,
			"target":34962
		},
		{
			"buffer":0,
			"byteLength":5820,
			"byteOffset":13080,
			"target":34963
		},
		{
			"buffer":0,
			"byteLength":1536,
			"byteOffset":18900,
			"target":34962
		},
		{
			"buffer":0,
			"byteLength":1536,
			"byteOffset":20436,
			"target":34962
		},
		{
			"buffer":0,
			"byteLength":744,
			"byteOffset":21972,
			"target":34963
		},
		{
			"buffer":0,
			"byteLength":6684,
			"byteOffset":22716,
			"target":34962
		},
		{
			"buffer":0,
			"byteLength":6684,
			"byteOffset":29400,
			"target":34962
		},
		{
			"buffer":0,
			"byteLength":3264,
			"byteOffset":36084,
			"target":34963
		},
		{
			"buffer":0,
			"byteLength":1824,
			"byteOffset":39348,
			"target":34962
		},
		{
			"buffer":0,
			"byteLength":1824,
			"byteOffset":41172,
			"target":34962
		},
		{
			"buffer":0,
			"byteLength":816,
			"byteOffset":42996,
			"target":34963
		},
		{
			"buffer":0,
			"byteLength":1536,
			"byteOffset":43812,
			"target":34962
		},
		{
			"buffer":0,
			"byteLength":1536,
			"byteOffset":45348,
			"target":34962
		},
		{
			"buffer":0,
			"byteLength":744,
			"byteOffset":46884,
			"target":34963
		},
		{
			"buffer":0,
			"byteLength":13824,
			"byteOffset":47628,
			"target":34962
		},
		{
			"buffer":0,
			"byteLength":13824,
			"byteOffset":61452,
			"target":34962
		},
		{
			"buffer":0,
			"byteLength":9216,
			"byteOffset":75276,
			"target":34962
		},
		{
			"buffer":0,
			"byteLength":4464,
			"byteOffset":84492,
			"target":34963
		}
	],
	"buffers":[
		{
			"byteLength":88956,
			"uri":"walec.bin"
		}
	]
}
